# xmcd
#
# Track frame offsets:
#	150
#	16318
#	27437
#	40614
#	56814
#	70812
#	81234
#	91938
#	102969
#	117524
#	132313
#	146402
#	162409
#	176650
#	190771
#
# Disc length: 2728 seconds
# Revision: 0
# Processed by: cddbd v1.5.2PL0 Copyright (c) Steve Scherf et al.
# Submitted via: dBpowerAMP V12.0
#
DISCID=cb0aa60f
DTITLE=Various Artist - Bella Italia - Club Hits Vol.
DYEAR=2000
DGENRE=Pop
TTITLE0=L'ora Dell'amore (Homburg)
TTITLE1=Bandiera Gialla 
TTITLE2=Perdono 
TTITLE3=Lady Barbara 
TTITLE4=E Se Domani 
TTITLE5=Sognando La California 
TTITLE6=Una Ragazza in Due (Down Comes the Rain) 
TTITLE7=Coccinella 
TTITLE8=Roberta 
TTITLE9=Deborah 
TTITLE10=I Tuoi Occhi Verdi 
TTITLE11=Susan Dei Marinai 
TTITLE12=Teresa 
TTITLE13=Ragazzi Tocca a Noi 
TTITLE14=Ragazzo Triste 
EXTD=
EXTT0=
EXTT1=
EXTT2=
EXTT3=
EXTT4=
EXTT5=
EXTT6=
EXTT7=
EXTT8=
EXTT9=
EXTT10=
EXTT11=
EXTT12=
EXTT13=
EXTT14=
PLAYORDER=
